<?xml version="1.0" standalone="no"?>
<!DOCTYPE svg PUBLIC "-//W3C//DTD SVG 20010904//EN"
 "http://www.w3.org/TR/2001/REC-SVG-20010904/DTD/svg10.dtd">
<svg version="1.0" xmlns="http://www.w3.org/2000/svg"
 width="100.000000pt" height="100.000000pt" viewBox="0 0 100.000000 100.000000"
 preserveAspectRatio="xMidYMid meet">

<g transform="translate(0.000000,100.000000) scale(0.100000,-0.100000)"
fill="#000000" stroke="none">
<path d="M422 872 c-15 -15 -39 -33 -54 -39 -16 -7 -28 -17 -28 -23 0 -5 -23
-10 -51 -10 -43 0 -55 -5 -80 -29 l-29 -29 0 -292 0 -292 29 -29 29 -29 242 0
242 0 29 29 29 29 0 241 c0 154 -4 241 -10 241 -6 0 -10 -85 -10 -235 l0 -236
-25 -24 -24 -25 -231 0 -231 0 -24 25 -25 24 0 281 0 281 25 24 c29 29 105 36
105 10 0 -13 23 -15 144 -15 139 0 144 1 149 22 4 15 -1 29 -19 45 -14 13 -30
23 -36 23 -5 0 -23 14 -38 30 -36 39 -73 39 -108 2z m88 -12 c11 -11 20 -24
20 -30 0 -5 9 -10 19 -10 20 0 51 -25 51 -41 0 -5 -55 -9 -125 -9 -70 0 -125
4 -125 9 0 16 31 41 51 41 10 0 19 5 19 10 0 15 38 50 55 50 8 0 24 -9 35 -20z"/>
<path d="M454 835 c-4 -9 -2 -21 4 -27 15 -15 44 -1 40 19 -4 23 -36 29 -44 8z
m36 -10 c0 -8 -7 -15 -15 -15 -8 0 -15 7 -15 15 0 8 7 15 15 15 8 0 15 -7 15
-15z"/>
<path d="M638 733 c-149 -149 -170 -175 -193 -232 -16 -39 -23 -67 -17 -73 6
-6 34 1 73 17 57 23 83 44 232 193 95 95 167 175 167 185 0 24 -53 77 -77 77
-10 0 -90 -72 -185 -167z m226 131 c14 -15 26 -32 26 -38 0 -19 -17 -39 -28
-32 -6 3 -12 1 -14 -4 -2 -6 -19 6 -38 27 -19 21 -23 28 -9 15 37 -33 47 -27
14 8 -25 26 -27 32 -15 40 23 15 35 12 64 -16z m-64 -69 c19 -19 32 -35 29
-35 -3 0 -20 16 -39 35 -19 19 -32 35 -29 35 3 0 20 -16 39 -35z m-44 14 c4
-6 -38 -57 -97 -118 l-104 -106 107 105 c83 81 110 102 120 92 9 -9 7 -17 -8
-34 l-19 -23 23 19 c17 15 25 17 34 8 10 -10 -16 -40 -112 -137 -69 -69 -130
-125 -137 -125 -29 0 -8 30 90 130 l102 105 -108 -105 c-89 -87 -110 -103
-124 -94 -48 30 -44 38 87 169 69 69 128 125 132 125 4 0 10 -5 14 -11z m-239
-291 c18 -18 33 -35 33 -39 0 -4 -16 -13 -36 -19 -30 -10 -39 -10 -51 3 -13
12 -13 21 -3 51 6 20 14 36 18 36 3 0 21 -14 39 -32z"/>
<path d="M529 563 c-13 -16 -12 -17 4 -4 9 7 17 15 17 17 0 8 -8 3 -21 -13z"/>
<path d="M262 708 c-17 -17 -17 -509 0 -526 17 -17 419 -17 436 0 7 7 11 26
11 43 -2 30 -2 30 -8 -5 l-6 -35 -215 0 -215 0 0 260 0 260 150 5 150 6 -145
2 c-103 1 -150 -2 -158 -10z"/>
<path d="M704 480 c0 -52 1 -74 3 -47 2 26 2 68 0 95 -2 26 -3 4 -3 -48z"/>
<path d="M702 345 c0 -16 2 -22 5 -12 2 9 2 23 0 30 -3 6 -5 -1 -5 -18z"/>
<path d="M701 284 c0 -11 3 -14 6 -6 3 7 2 16 -1 19 -3 4 -6 -2 -5 -13z"/>
</g>
</svg>
